# File created by Blade
# Date/Time:  Thu Jan 22 19:01:15 2015
# Frame Rate: 120.000 fps
#------------------------------------------------------
:FULLY-SPECIFIED
:DEGREES
1479
root -2.945635 33.118217 -0.235099 7.227373 2.148054 3.025915
RightUpLeg -0.657825 -8.512528 -1.886037
RightLeg 1.889214 -0.000000 -0.000000
RightFoot -13.475058 -4.970170 2.869930
RightToeBase 5.663832 -0.000000 -0.000000
LeftUpLeg -1.328000 1.847082 1.205808
LeftLeg 1.461086 -0.000000 -0.000000
LeftFoot -10.134126 0.067625 -9.212273
LeftToeBase 8.290755 -0.000000 -0.000000
Spine -11.721190 -0.456386 -2.284711
RightShoulder -20.962175 18.763020 -53.290697
RightArm 79.447033 56.092328 68.172030
RightForeArm 23.719812 0.000000 37.916250
RightHand 14.684598 -0.000000 -21.819978
RightHandThumb1 -24.326973 -0.000000 -32.862282
LeftShoulder -15.600986 9.345373 16.165424
LeftArm 1.114052 33.055493 -82.164707
LeftForeArm 23.028535 -0.000000 14.561248
LeftHand -2.990557 -0.000000 -12.105517
LeftHandThumb1 -26.253704 0.000000 33.147579
Head 14.014343 1.645487 3.964045
1480
root -2.950305 33.121098 -0.228394 7.216943 2.256284 3.029974
RightUpLeg -0.594431 -8.613685 -1.875435
RightLeg 1.842892 -0.000000 -0.000000
RightFoot -13.444626 -4.962275 2.884396
RightToeBase 5.617100 -0.000000 -0.000000
LeftUpLeg -1.272370 1.823143 1.219753
LeftLeg 1.348076 -0.000000 -0.000000
LeftFoot -10.031325 0.018289 -9.205843
LeftToeBase 8.266514 -0.000000 -0.000000
Spine -11.701541 -0.576078 -2.334225
RightShoulder -21.223738 18.701499 -53.475738
RightArm 80.497977 56.478258 68.961481
RightForeArm 23.853055 0.000000 39.701399
RightHand 14.857429 -0.000000 -21.604028
RightHandThumb1 -24.326973 -0.000000 -32.862282
LeftShoulder -15.575433 9.358235 16.147375
LeftArm 0.929726 33.374581 -82.282653
LeftForeArm 23.079088 -0.000000 14.584429
LeftHand -2.961093 -0.000000 -12.454063
LeftHandThumb1 -26.253704 0.000000 33.147579
Head 14.335145 1.619925 4.175970
1481
root -2.959041 33.123932 -0.221915 7.210523 2.350773 3.018604
RightUpLeg -0.562251 -8.781363 -1.838141
RightLeg 1.842113 -0.000000 -0.000000
RightFoot -13.419340 -4.920972 2.851031
RightToeBase 5.613194 -0.000000 -0.000000
LeftUpLeg -1.216671 1.800979 1.256788
LeftLeg 1.231963 -0.000000 -0.000000
LeftFoot -9.935353 -0.035514 -9.206845
LeftToeBase 8.237366 -0.000000 -0.000000
Spine -11.682044 -0.702487 -2.376150
RightShoulder -21.480951 18.772636 -53.733557
RightArm 81.154640 56.875333 69.490323
RightForeArm 23.833465 0.000000 41.622644
RightHand 15.015488 0.000000 -21.147850
RightHandThumb1 -24.326973 -0.000000 -32.862282
LeftShoulder -15.560637 9.291818 16.154365
LeftArm 0.616976 33.783205 -82.476869
LeftForeArm 23.254806 -0.000000 14.621049
LeftHand -2.956448 -0.000000 -12.295408
LeftHandThumb1 -26.253704 0.000000 33.147579
Head 14.654082 1.598151 4.380759
1482
root -2.968285 33.126792 -0.215964 7.201347 2.435497 3.008973
RightUpLeg -0.505804 -8.838451 -1.807064
RightLeg 1.793650 -0.000000 -0.000000
RightFoot -13.379294 -4.934887 2.872513
RightToeBase 5.609019 -0.000000 -0.000000
LeftUpLeg -1.161035 1.765979 1.294234
LeftLeg 1.122108 -0.000000 -0.000000
LeftFoot -9.847054 -0.071167 -9.200997
LeftToeBase 8.242519 -0.000000 -0.000000
Spine -11.668753 -0.836595 -2.439373
RightShoulder -21.660505 18.771808 -53.895808
RightArm 81.759878 57.368810 69.930143
RightForeArm 23.666763 0.000000 43.649237
RightHand 15.384011 0.000000 -20.890547
RightHandThumb1 -24.326973 -0.000000 -32.862282
LeftShoulder -15.567483 9.377092 16.148886
LeftArm 0.504320 34.173485 -82.577714
LeftForeArm 23.385208 -0.000000 14.668029
LeftHand -3.014362 -0.000000 -12.381976
LeftHandThumb1 -26.253704 0.000000 33.147579
Head 15.006356 1.584055 4.631299
1483
root -2.976810 33.129572 -0.210066 7.203074 2.518797 2.996203
RightUpLeg -0.459053 -8.868752 -1.774010
RightLeg 1.740097 -0.000000 -0.000000
RightFoot -13.336450 -4.978100 2.872995
RightToeBase 5.615193 -0.000000 -0.000000
LeftUpLeg -1.118370 1.767180 1.331569
LeftLeg 1.015046 -0.000000 -0.000000
LeftFoot -9.756934 -0.140253 -9.191677
LeftToeBase 8.231932 -0.000000 -0.000000
Spine -11.661745 -0.970170 -2.498351
RightShoulder -21.870868 18.853493 -54.144933
RightArm 82.002338 57.843782 70.158680
RightForeArm 23.412894 0.000000 45.842142
RightHand 15.543874 -0.000000 -20.937216
RightHandThumb1 -24.326973 -0.000000 -32.862282
LeftShoulder -15.577727 9.399828 16.168179
LeftArm 0.303748 34.606228 -82.732848
LeftForeArm 23.490685 -0.000000 14.739006
LeftHand -2.895778 -0.000000 -12.375070
LeftHandThumb1 -26.253704 0.000000 33.147579
Head 15.352665 1.598852 4.894180
1484
root -2.985908 33.132125 -0.204680 7.210834 2.587901 2.975457
RightUpLeg -0.421329 -8.907719 -1.732406
RightLeg 1.685435 -0.000000 -0.000000
RightFoot -13.291802 -4.990311 2.908073
RightToeBase 5.642706 -0.000000 -0.000000
LeftUpLeg -1.078405 1.754197 1.376079
LeftLeg 0.907182 -0.000000 -0.000000
LeftFoot -9.683827 -0.180709 -9.221782
LeftToeBase 8.232125 -0.000000 -0.000000
Spine -11.665604 -1.111178 -2.553312
RightShoulder -22.072097 18.566892 -54.202164
RightArm 83.188488 58.363643 71.252320
RightForeArm 22.928804 -0.000000 48.099989
RightHand 15.572828 -0.000000 -20.976103
RightHandThumb1 -24.326973 -0.000000 -32.862282
LeftShoulder -15.587960 9.377554 16.201632
LeftArm 0.022306 35.015576 -82.950540
LeftForeArm 23.749791 -0.000000 14.829210
LeftHand -3.019297 -0.000000 -12.485049
LeftHandThumb1 -26.253704 0.000000 33.147579
Head 15.682535 1.596256 5.129917
1485
root -2.994853 33.134560 -0.195037 7.191865 2.601734 2.946860
RightUpLeg -0.359806 -8.856060 -1.691014
RightLeg 1.630552 -0.000000 -0.000000
RightFoot -13.236785 -5.047688 2.942665
RightToeBase 5.628940 -0.000000 -0.000000
LeftUpLeg -0.979594 1.800387 1.423832
LeftLeg 0.762750 -0.000000 -0.000000
LeftFoot -9.593655 -0.233837 -9.214930
LeftToeBase 8.221818 -0.000000 -0.000000
Spine -11.661991 -1.196087 -2.616763
RightShoulder -22.260672 18.440361 -54.370575
RightArm 83.797967 58.861101 71.997027
RightForeArm 22.611751 0.000000 50.577451
RightHand 15.732491 -0.000000 -21.127405
RightHandThumb1 -24.326973 -0.000000 -32.862282
LeftShoulder -15.575769 9.369542 16.246821
LeftArm -0.256633 35.395393 -83.171504
LeftForeArm 23.956294 -0.000000 14.915103
LeftHand -2.975031 0.000000 -12.333222
LeftHandThumb1 -26.253704 0.000000 33.147579
Head 16.079335 1.546505 5.436802
1486
root -3.004723 33.137208 -0.185578 7.156664 2.616986 2.913965
RightUpLeg -0.281115 -8.829482 -1.646145
RightLeg 1.573374 -0.000000 -0.000000
RightFoot -13.179837 -5.075418 2.967525
RightToeBase 5.634440 -0.000000 -0.000000
LeftUpLeg -0.869116 1.854436 1.475670
LeftLeg 0.628290 -0.000000 -0.000000
LeftFoot -9.509663 -0.283072 -9.229187
LeftToeBase 8.219034 -0.000000 -0.000000
Spine -11.646046 -1.298747 -2.675520
RightShoulder -22.379638 18.124632 -54.419137
RightArm 84.621271 59.453939 72.921197
RightForeArm 22.510069 -0.000000 53.192770
RightHand 16.015652 -0.000000 -21.423718
RightHandThumb1 -24.326973 -0.000000 -32.862282
LeftShoulder -15.546953 9.342729 16.274399
LeftArm -0.584869 35.711615 -83.397617
LeftForeArm 24.022914 0.000000 15.029141
LeftHand -2.894477 -0.000000 -12.361575
LeftHandThumb1 -26.253704 0.000000 33.147579
Head 16.458721 1.487385 5.651279
1487
root -3.014586 33.141182 -0.177207 7.138330 2.654240 2.891627
RightUpLeg -0.215975 -8.820476 -1.606827
RightLeg 1.511399 -0.000000 -0.000000
RightFoot -13.113918 -5.110700 2.995400
RightToeBase 5.641713 -0.000000 -0.000000
LeftUpLeg -0.791987 1.841697 1.521086
LeftLeg 0.514246 -0.000000 -0.000000
LeftFoot -9.424860 -0.293240 -9.214648
LeftToeBase 8.191063 -0.000000 -0.000000
Spine -11.648404 -1.440288 -2.754817
RightShoulder -22.536257 17.963180 -54.477816
RightArm 85.257965 59.945868 73.751591
RightForeArm 22.513137 -0.000000 55.905637
RightHand 16.281136 0.000000 -21.674157
RightHandThumb1 -24.326973 -0.000000 -32.862282
LeftShoulder -15.539487 9.385705 16.279691
LeftArm -0.825747 36.110936 -83.588864
LeftForeArm 24.336204 -0.000000 15.133606
LeftHand -2.955837 -0.000000 -12.592915
LeftHandThumb1 -26.253704 0.000000 33.147579
Head 16.860047 1.425672 5.926755
